<?xml version="1.0" encoding="utf-8"?>
<!-- Generator: Adobe Illustrator 12.0.0, SVG Export Plug-In . SVG Version: 6.00 Build 51448)  -->
<!DOCTYPE svg PUBLIC "-//W3C//DTD SVG 1.1//EN" "http://www.w3.org/Graphics/SVG/1.1/DTD/svg11.dtd" [
	<!ENTITY ns_svg "http://www.w3.org/2000/svg">
	<!ENTITY ns_xlink "http://www.w3.org/1999/xlink">
]>
<svg  version="1.1" id="Capa_1" xmlns="&ns_svg;" xmlns:xlink="&ns_xlink;" width="510" height="510" viewBox="0 0 510 510"
	 overflow="visible" enable-background="new 0 0 510 510" xml:space="preserve">
<g>
	<g id="check-circle-outline">
		<path fill="#2DB92D" d="M151.04,207.36L115.2,243.2l115.2,115.2l256-256L450.56,66.56L230.4,286.721L151.04,207.36z M460.8,256
			c0,112.641-92.16,204.8-204.8,204.8c-112.64,0-204.8-92.159-204.8-204.8c0-112.64,92.16-204.8,204.8-204.8
			c20.48,0,38.4,2.56,56.32,7.68l40.961-40.96C322.56,7.68,289.279,0,256,0C115.2,0,0,115.2,0,256s115.2,256,256,256
			s256-115.2,256-256H460.8z"/>
	</g>
</g>
</svg>
